<svg xmlns="http://www.w3.org/2000/svg"  viewBox="0 0 100 100" width="50px" height="50px"><path fill="#78a1d1" d="M69.307,81.654h-39c-6.6,0-12-5.4-12-12v-39c0-6.6,5.4-12,12-12h39c6.6,0,12,5.4,12,12v39C81.307,76.254,75.907,81.654,69.307,81.654z"/><path fill="#1f212b" d="M69.307,82.654h-39c-7.168,0-13-5.832-13-13v-39c0-7.168,5.832-13,13-13h39c7.168,0,13,5.832,13,13v39C82.307,76.822,76.476,82.654,69.307,82.654z M30.307,19.654c-6.065,0-11,4.935-11,11v39c0,6.065,4.935,11,11,11h39c6.065,0,11-4.935,11-11v-39c0-6.065-4.935-11-11-11H30.307z"/><path fill="#78a1d1" d="M76.807,48.154v18.663c0,5.685-4.652,10.337-10.337,10.337H33.144c-5.685,0-10.337-4.652-10.337-10.337V33.491c0-5.685,4.652-10.337,10.337-10.337h33.663"/><path fill="#1f212b" d="M66.47,77.654H33.144c-5.976,0-10.837-4.861-10.837-10.837V33.49c0-5.976,4.861-10.837,10.837-10.837h33.663c0.276,0,0.5,0.224,0.5,0.5s-0.224,0.5-0.5,0.5H33.144c-5.424,0-9.837,4.413-9.837,9.837v33.326c0,5.424,4.413,9.837,9.837,9.837H66.47c5.424,0,9.837-4.413,9.837-9.837V48.154c0-0.276,0.224-0.5,0.5-0.5s0.5,0.224,0.5,0.5v18.663C77.307,72.792,72.446,77.654,66.47,77.654z"/><path fill="#1f212b" d="M76.807 46.654c-.276 0-.5-.224-.5-.5v-4c0-.276.224-.5.5-.5s.5.224.5.5v4C77.307 46.43 77.083 46.654 76.807 46.654zM76.807 40.654c-.276 0-.5-.224-.5-.5v-2c0-.276.224-.5.5-.5s.5.224.5.5v2C77.307 40.43 77.083 40.654 76.807 40.654z"/><path fill="#fdfcee" d="M64.807,53.974v10.179h-6l-0.083-10.092c0-2.556-1.163-4.372-3.456-4.372c-1.751,0-2.788,1.172-3.248,2.309c-0.165,0.404-0.213,0.973-0.213,1.542v10.613H45.73c0,0,0.082-17.219,0-19h6.077v2.933c-0.014,0.022-0.027,0.045-0.041,0.067h0.041v-0.067c0.845-1.41,2.387-3.053,5.752-3.053C61.727,45.026,64.807,47.624,64.807,53.974z M38.825,36.195c-1.877,0-3.101,1.287-3.101,2.979c0,1.654,1.188,2.979,3.03,2.979h0.036c1.913,0,3.101-1.325,3.101-2.979C41.849,37.483,40.696,36.195,38.825,36.195z M35.807,64.154h6v-19h-6V64.154z"/><path fill="#1f212b" d="M64.807,64.654h-6c-0.274,0-0.498-0.221-0.5-0.496l-0.083-10.092c0-1.168-0.288-3.876-2.956-3.876c-1.784,0-2.541,1.396-2.784,1.997c-0.117,0.287-0.176,0.743-0.176,1.354v10.613c0,0.276-0.224,0.5-0.5,0.5H45.73c-0.133,0-0.261-0.053-0.354-0.147s-0.146-0.222-0.146-0.355c0.001-0.172,0.081-17.226,0-18.975c-0.006-0.136,0.043-0.27,0.138-0.368c0.095-0.099,0.225-0.155,0.362-0.155h6.077c0.276,0,0.5,0.224,0.5,0.5v1.43c1.288-1.381,3.071-2.038,5.271-2.05c2.188,0,3.968,0.668,5.288,1.986c1.62,1.617,2.441,4.125,2.441,7.456v10.179C65.307,64.43,65.083,64.654,64.807,64.654z M59.303,63.654h5.004v-9.679c0-3.055-0.723-5.325-2.148-6.748c-1.125-1.124-2.667-1.693-4.582-1.693c-0.006,0-0.011,0-0.017,0c-3.215,0-4.561,1.557-5.292,2.756c-0.075,0.199-0.253,0.364-0.461,0.364c-0.181,0-0.368-0.098-0.457-0.255c-0.077-0.137-0.1-0.3-0.043-0.441v-2.304h-5.064c0.053,3.027,0.001,15.303-0.011,18h5.075V53.54c0-0.753,0.082-1.319,0.25-1.731c0.663-1.64,2.051-2.62,3.71-2.62c2.44,0,3.956,1.867,3.956,4.873L59.303,63.654z M41.807,64.654h-6c-0.276,0-0.5-0.224-0.5-0.5v-19c0-0.276,0.224-0.5,0.5-0.5h6c0.276,0,0.5,0.224,0.5,0.5v19C42.307,64.43,42.083,64.654,41.807,64.654z M36.307,63.654h5v-18h-5V63.654z M38.789,42.654c-2.081,0-3.565-1.463-3.565-3.479s1.515-3.479,3.602-3.479c2.048,0,3.515,1.426,3.565,3.467C42.391,41.191,40.876,42.654,38.789,42.654z M38.825,36.695c-1.532,0-2.602,1.02-2.602,2.479c0,1.459,1.041,2.479,2.53,2.479c1.567,0,2.637-1.02,2.637-2.479C41.353,37.673,40.346,36.695,38.825,36.695z"/></svg>