<svg xmlns="http://www.w3.org/2000/svg"  viewBox="0 0 100 100" width="50px" height="50px"><path fill="#6475a5" d="M69.575,80h-39c-6.6,0-12-5.4-12-12V29c0-6.6,5.4-12,12-12h39c6.6,0,12,5.4,12,12v39C81.575,74.6,76.175,80,69.575,80z"/><path fill="#1f212b" d="M69.575,81h-39c-7.168,0-13-5.832-13-13V29c0-7.168,5.832-13,13-13h39c7.168,0,13,5.832,13,13v39C82.575,75.168,76.743,81,69.575,81z M30.575,18c-6.065,0-11,4.935-11,11v39c0,6.065,4.935,11,11,11h39c6.065,0,11-4.935,11-11V29c0-6.065-4.935-11-11-11H30.575z"/><path fill="#6475a5" d="M77.075,46.5v18.663c0,5.685-4.652,10.337-10.337,10.337H33.412c-5.685,0-10.337-4.652-10.337-10.337V31.837c0-5.685,4.652-10.337,10.337-10.337h33.663"/><path fill="#1f212b" d="M66.738,76H33.412c-5.976,0-10.837-4.861-10.837-10.837V31.837C22.575,25.861,27.436,21,33.412,21h33.663c0.276,0,0.5,0.224,0.5,0.5s-0.224,0.5-0.5,0.5H33.412c-5.424,0-9.837,4.413-9.837,9.837v33.326c0,5.424,4.413,9.837,9.837,9.837h33.326c5.424,0,9.837-4.413,9.837-9.837V46.5c0-0.276,0.224-0.5,0.5-0.5s0.5,0.224,0.5,0.5v18.663C77.575,71.139,72.713,76,66.738,76z"/><path fill="#1f212b" d="M77.075 45c-.276 0-.5-.224-.5-.5v-4c0-.276.224-.5.5-.5s.5.224.5.5v4C77.575 44.776 77.351 45 77.075 45zM77.075 39c-.276 0-.5-.224-.5-.5v-2c0-.276.224-.5.5-.5s.5.224.5.5v2C77.575 38.776 77.351 39 77.075 39z"/><path fill="#fdfcee" d="M45.075,39.137c0,0.859,0,4.363,0,4.363h-3v5h3v16h7v-16h4.113c0,0,0.385-2.387,0.571-5c-0.536,0-5.684,0-5.684,0s0-3.146,0-3.7c0-0.553,0.725-1.3,1.442-1.3c0.717,0,3.123,0,4.558,0c0-0.788,0-3.493,0-6c-1.907,0-4.081,0-5.035,0C44.907,32.508,45.075,38.277,45.075,39.137z"/><path fill="#1f212b" d="M52.075,65h-7c-0.276,0-0.5-0.224-0.5-0.5V49h-2.5c-0.276,0-0.5-0.224-0.5-0.5v-5c0-0.276,0.224-0.5,0.5-0.5h2.5v-3.863h0.5l-0.5-0.057c-0.008-2.167,0.612-3.892,1.843-5.128c1.286-1.292,3.178-1.95,5.621-1.952h5.036c0.276,0,0.5,0.224,0.5,0.5v6c0,0.276-0.224,0.5-0.5,0.5h-4.558c-0.47,0-0.942,0.549-0.942,0.8V43h5.184c0.139,0,0.271,0.058,0.366,0.159c0.094,0.102,0.143,0.238,0.133,0.376c-0.186,2.605-0.573,5.02-0.577,5.044C56.641,48.822,56.432,49,56.187,49h-3.612v15.5C52.575,64.776,52.351,65,52.075,65z M45.575,64h6V48.5c0-0.276,0.224-0.5,0.5-0.5h3.683c0.106-0.721,0.32-2.282,0.461-4h-5.144c-0.276,0-0.5-0.224-0.5-0.5v-3.7c0-0.875,0.998-1.8,1.942-1.8h4.058v-5H52.04c-2.168,0.002-3.821,0.56-4.914,1.658c-1.036,1.041-1.558,2.527-1.551,4.419c0,0,0,0.06,0,0.06V43.5c0,0.276-0.224,0.5-0.5,0.5h-2.5v4h2.5c0.276,0,0.5,0.224,0.5,0.5V64z"/></svg>