<svg xmlns="http://www.w3.org/2000/svg"  viewBox="0 0 100 100" width="50px" height="50px"><path fill="#fdfcee" d="M69.228,80h-39c-6.6,0-12-5.4-12-12V29c0-6.6,5.4-12,12-12h39c6.6,0,12,5.4,12,12v39C81.228,74.6,75.828,80,69.228,80z"/><path fill="#1f212b" d="M69.228,81h-39c-7.168,0-13-5.832-13-13V29c0-7.168,5.832-13,13-13h39c7.168,0,13,5.832,13,13v39C82.228,75.168,76.396,81,69.228,81z M30.228,18c-6.065,0-11,4.935-11,11v39c0,6.065,4.935,11,11,11h39c6.065,0,11-4.935,11-11V29c0-6.065-4.935-11-11-11H30.228z"/><path fill="#fdfcee" d="M76.728,46.5v18.663c0,5.685-4.652,10.337-10.337,10.337H33.066c-5.685,0-10.337-4.652-10.337-10.337V31.837c0-5.685,4.652-10.337,10.337-10.337h33.663"/><path fill="#1f212b" d="M66.391,76H33.065c-5.976,0-10.837-4.861-10.837-10.837V31.837C22.228,25.861,27.09,21,33.065,21h33.663c0.276,0,0.5,0.224,0.5,0.5s-0.224,0.5-0.5,0.5H33.065c-5.424,0-9.837,4.413-9.837,9.837v33.326c0,5.424,4.413,9.837,9.837,9.837h33.326c5.424,0,9.837-4.413,9.837-9.837V46.5c0-0.276,0.224-0.5,0.5-0.5s0.5,0.224,0.5,0.5v18.663C77.228,71.139,72.367,76,66.391,76z"/><path fill="#1f212b" d="M76.728 45c-.276 0-.5-.224-.5-.5v-4c0-.276.224-.5.5-.5s.5.224.5.5v4C77.228 44.776 77.005 45 76.728 45zM76.728 39c-.276 0-.5-.224-.5-.5v-2c0-.276.224-.5.5-.5s.5.224.5.5v2C77.228 38.776 77.005 39 76.728 39z"/><path fill="#f27c7d" d="M50.432,33.5c-8.734,0-13.379,5.621-13.379,11.748c0,2.841,1.581,6.387,4.114,7.511c0.383,0.173,0.593,0.099,0.679-0.259c0.074-0.272,0.408-1.581,0.568-2.199c0.049-0.198,0.025-0.371-0.136-0.556c-0.84-0.976-1.507-2.755-1.507-4.422c0-4.274,3.385-8.425,9.141-8.425c4.978,0,8.462,3.249,8.462,7.894c0,5.25-2.767,8.882-6.362,8.882c-1.989,0-3.471-1.569-3.002-3.508c0.568-2.31,1.68-4.793,1.68-6.461c0-1.495-0.84-2.73-2.557-2.73c-2.026,0-3.669,2.014-3.669,4.719c0,1.717,0.605,2.878,0.605,2.878s-2.001,8.128-2.372,9.648c-0.63,2.569,0.086,6.733,0.148,7.091c0.037,0.198,0.259,0.259,0.383,0.099c0.198-0.259,2.619-3.731,3.298-6.238c0.247-0.914,1.26-4.62,1.26-4.62c0.667,1.211,2.594,2.224,4.645,2.224c6.103,0,10.513-5.386,10.513-12.069C62.921,38.293,57.461,33.5,50.432,33.5"/><path fill="#1f212b" d="M43.059,66c-0.055,0-0.109-0.006-0.164-0.019c-0.273-0.065-0.485-0.292-0.539-0.579c-0.135-0.783-0.765-4.765-0.143-7.302c0.339-1.389,2.04-8.3,2.33-9.478c-0.179-0.411-0.578-1.488-0.578-2.929c0-2.927,1.831-5.219,4.169-5.219c1.829,0,3.058,1.298,3.058,3.23c0,1.138-0.459,2.559-0.945,4.064c-0.269,0.831-0.547,1.69-0.75,2.517c-0.172,0.71-0.034,1.398,0.388,1.934c0.478,0.606,1.254,0.955,2.129,0.955c3.396,0,5.862-3.525,5.862-8.382c0-4.354-3.274-7.394-7.962-7.394c-5.613,0-8.642,4.083-8.642,7.925c0,1.463,0.57,3.148,1.386,4.096c0.254,0.292,0.336,0.63,0.241,1.004l-0.225,0.874c-0.146,0.569-0.299,1.162-0.346,1.335c-0.072,0.301-0.23,0.52-0.466,0.635c-0.376,0.186-0.771,0.007-0.901-0.052c-2.758-1.224-4.408-5.012-4.408-7.966C36.554,39.349,40.896,33,50.432,33c7.394,0,12.988,5.031,13.014,11.703c0,7.167-4.734,12.571-11.013,12.571c-1.703,0-3.397-0.653-4.423-1.639c-0.317,1.163-0.832,3.05-0.999,3.666c-0.678,2.502-3.05,5.974-3.384,6.412C43.485,65.897,43.277,66,43.059,66z M48.135,41.474c-1.777,0-3.169,1.854-3.169,4.219c0,1.561,0.544,2.637,0.55,2.648c0.055,0.107,0.07,0.232,0.041,0.35c0,0-2.001,8.127-2.372,9.647c-0.469,1.913-0.153,4.796,0.047,6.194c0.763-1.142,2.315-3.649,2.815-5.492c0.247-0.914,1.26-4.621,1.26-4.621c0.054-0.196,0.221-0.341,0.424-0.365c0.204-0.022,0.399,0.077,0.496,0.255c0.525,0.953,2.178,1.965,4.207,1.965c5.708,0,10.013-4.974,10.013-11.569C62.423,38.603,57.258,34,50.432,34c-8.849,0-12.879,5.831-12.879,11.248c0,2.578,1.459,6.007,3.817,7.054c0.003,0.001,0.006,0.002,0.008,0.004c0.077-0.286,0.204-0.78,0.327-1.258l0.225-0.873c0-0.001-0.029-0.104-0.03-0.104c-0.974-1.132-1.628-3.04-1.628-4.749c0-4.327,3.379-8.925,9.642-8.925c5.276,0,8.962,3.452,8.962,8.394c0,5.436-2.886,9.382-6.862,9.382c-1.184,0-2.246-0.487-2.915-1.336c-0.615-0.782-0.818-1.772-0.573-2.79c0.213-0.862,0.496-1.739,0.77-2.587c0.462-1.428,0.897-2.776,0.897-3.756C50.192,43.181,50.044,41.474,48.135,41.474z"/></svg>