<?xml version="1.0" encoding="UTF-8" standalone="no"?>
<svg
   aria-hidden="true"
   focusable="false"
   data-prefix="fas"
   data-icon="sort-amount-up"
   class="svg-inline--fa fa-sort-amount-up fa-w-16"
   role="img"
   viewBox="0 0 512.00659 448"
   version="1.1"
   id="svg4"
   sodipodi:docname="sort-amount-up-solid.svg"
   width="512.00659"
   height="448"
   inkscape:version="1.1.1 (3bf5ae0d25, 2021-09-20)"
   xmlns:inkscape="http://www.inkscape.org/namespaces/inkscape"
   xmlns:sodipodi="http://sodipodi.sourceforge.net/DTD/sodipodi-0.dtd"
   xmlns="http://www.w3.org/2000/svg"
   xmlns:svg="http://www.w3.org/2000/svg">
  <defs
     id="defs8" />
  <sodipodi:namedview
     id="namedview6"
     pagecolor="#ffffff"
     bordercolor="#666666"
     borderopacity="1.0"
     inkscape:pageshadow="2"
     inkscape:pageopacity="0.0"
     inkscape:pagecheckerboard="0"
     showgrid="false"
     inkscape:zoom="1.625"
     inkscape:cx="255.69231"
     inkscape:cy="272.30769"
     inkscape:window-width="1920"
     inkscape:window-height="1017"
     inkscape:window-x="-8"
     inkscape:window-y="-8"
     inkscape:window-maximized="1"
     inkscape:current-layer="svg4" />
  <path
     fill="currentColor"
     d="m 208,384 h 64 a 16,16 0 0 1 16,16 v 32 a 16,16 0 0 1 -16,16 h -64 a 16,16 0 0 1 -16,-16 v -32 a 16,16 0 0 1 16,-16 z M 496,128 h -48 v 304 a 16,16 0 0 1 -16,16 H 400 A 16,16 0 0 1 384,432 V 128 h -48 c -14.21,0 -21.38,-17.24 -11.31,-27.31 l 80,-96 a 16,16 0 0 1 22.62,0 l 80,96 C 517.35,110.74 510.23,128 496,128 Z m -416,0 h 192 a 16,16 0 0 1 16,16 v 32 a 16,16 0 0 1 -16,16 H 80 A 16,16 0 0 1 64,176 v -32 a 16,16 0 0 1 16,-16 z m 64,128 h 128 a 16,16 0 0 1 16,16 v 32 a 16,16 0 0 1 -16,16 H 144 a 16,16 0 0 1 -16,-16 v -32 a 16,16 0 0 1 16,-16 z M 16,0 h 256 a 16,16 0 0 1 16,16 V 48 A 16,16 0 0 1 272,64 H 16 A 16,16 0 0 1 0,48 V 16 A 16,16 0 0 1 16,0 Z"
     id="path2" />
  <path
     id="path2-3"
     d="M 18.470703,0 C 9.634148,5.5228471e-8 2.4707031,7.163444 2.4707031,16 v 32 c -1.1e-6,8.836557 7.1634442,16 15.9999999,16 h 64 c 8.836557,0 16.000001,-7.163443 16,-16 V 16 c 0,-8.836556 -7.163444,-16 -16,-16 z m 0,128 c -8.836555,0 -15.9999999,7.16344 -15.9999999,16 v 32 c 0,8.83656 7.1634449,16 15.9999999,16 H 146.4707 c 8.83656,0 16,-7.16344 16,-16 v -32 c 0,-8.83656 -7.16344,-16 -16,-16 z m 0,128 c -8.836555,0 -15.9999999,7.16344 -15.9999999,16 v 32 c 0,8.83656 7.1634449,16 15.9999999,16 H 210.4707 c 8.83656,0 16,-7.16344 16,-16 v -32 c 0,-8.83656 -7.16344,-16 -16,-16 z m 0,128 c -8.836555,0 -15.9999999,7.16344 -15.9999999,16 v 32 c 0,8.83656 7.1634449,16 15.9999999,16 H 274.4707 c 8.83656,0 16,-7.16344 16,-16 v -32 c 0,-8.83656 -7.16344,-16 -16,-16 z" />
</svg>
